<svg width="20" height="18" viewBox="0 0 20 18" fill="none" xmlns="http://www.w3.org/2000/svg">
<path d="M5.63685 16.1302L5.80433 16.7582L5.63685 16.1302ZM5.97834 16.1588L6.24247 15.5649L5.97834 16.1588ZM1.57239 17.214L1.73987 17.8421L1.57239 17.214ZM2.34075 13.2031L1.80725 13.5744L2.34075 13.2031ZM2.38416 13.7317L2.96554 14.0224L2.38416 13.7317ZM18.35 9C18.35 12.9894 14.6857 16.35 9.99999 16.35V17.65C15.2555 17.65 19.65 13.8471 19.65 9H18.35ZM9.99999 1.65C14.6857 1.65 18.35 5.01056 18.35 9H19.65C19.65 4.15288 15.2555 0.35 9.99999 0.35V1.65ZM1.64999 9C1.64999 5.01056 5.31433 1.65 9.99999 1.65V0.35C4.74453 0.35 0.349993 4.15288 0.349993 9H1.64999ZM2.87425 12.8318C2.09483 11.7119 1.64999 10.4002 1.64999 9H0.349993C0.349993 10.6833 0.886478 12.2515 1.80725 13.5744L2.87425 12.8318ZM1.57772 16.798L2.96554 14.0224L1.80278 13.441L0.414963 16.2166L1.57772 16.798ZM5.46937 15.5021L1.4049 16.586L1.73987 17.8421L5.80433 16.7582L5.46937 15.5021ZM9.99999 16.35C8.64555 16.35 7.36966 16.0662 6.24247 15.5649L5.7142 16.7527C7.00767 17.328 8.46353 17.65 9.99999 17.65V16.35ZM5.80433 16.7582C5.76819 16.7679 5.7365 16.7627 5.7142 16.7527L6.24247 15.5649C6.00528 15.4594 5.73275 15.4319 5.46937 15.5021L5.80433 16.7582ZM0.414963 16.2166C-0.0282134 17.103 0.782349 18.0974 1.73987 17.8421L1.4049 16.586C1.5298 16.5527 1.63552 16.6824 1.57772 16.798L0.414963 16.2166ZM1.80725 13.5744C1.78809 13.5469 1.77509 13.4964 1.80278 13.441L2.96554 14.0224C3.16319 13.627 3.1105 13.1712 2.87425 12.8318L1.80725 13.5744Z" fill="#E7D6C9"/>
</svg>
