<svg width="19" height="18" viewBox="0 0 19 18" fill="none" xmlns="http://www.w3.org/2000/svg">
<path d="M9.03246 5.99861C7.37988 5.99861 6.03124 7.34725 6.03124 8.99983C6.03124 10.6524 7.37988 12.0011 9.03246 12.0011C10.685 12.0011 12.0337 10.6524 12.0337 8.99983C12.0337 7.34725 10.685 5.99861 9.03246 5.99861ZM18.0339 8.99983C18.0339 7.75702 18.0451 6.52546 17.9753 5.28489C17.9055 3.84395 17.5768 2.5651 16.5231 1.51141C15.4672 0.455468 14.1906 0.129004 12.7497 0.0592081C11.5068 -0.0105877 10.2753 0.000669689 9.03471 0.000669689C7.7919 0.000669689 6.56034 -0.0105877 5.31977 0.0592081C3.87883 0.129004 2.59999 0.45772 1.54629 1.51141C0.49035 2.56736 0.163886 3.84395 0.0940897 5.28489C0.0242939 6.52771 0.0355513 7.75927 0.0355513 8.99983C0.0355513 10.2404 0.0242939 11.4742 0.0940897 12.7148C0.163886 14.1557 0.492602 15.4346 1.54629 16.4883C2.60224 17.5442 3.87883 17.8707 5.31977 17.9405C6.56259 18.0103 7.79415 17.999 9.03471 17.999C10.2775 17.999 11.5091 18.0103 12.7497 17.9405C14.1906 17.8707 15.4694 17.5419 16.5231 16.4883C17.5791 15.4323 17.9055 14.1557 17.9753 12.7148C18.0474 11.4742 18.0339 10.2427 18.0339 8.99983ZM9.03246 13.6176C6.47703 13.6176 4.41468 11.5553 4.41468 8.99983C4.41468 6.4444 6.47703 4.38205 9.03246 4.38205C11.5879 4.38205 13.6502 6.4444 13.6502 8.99983C13.6502 11.5553 11.5879 13.6176 9.03246 13.6176ZM13.8394 5.27138C13.2427 5.27138 12.7609 4.78957 12.7609 4.19292C12.7609 3.59628 13.2427 3.11447 13.8394 3.11447C14.436 3.11447 14.9178 3.59628 14.9178 4.19292C14.918 4.3346 14.8902 4.47492 14.8361 4.60584C14.782 4.73677 14.7025 4.85573 14.6024 4.95591C14.5022 5.05609 14.3832 5.13552 14.2523 5.18965C14.1214 5.24379 13.981 5.27156 13.8394 5.27138Z" fill="white"/>
</svg>
