<svg width="19" height="18" viewBox="0 0 19 18" fill="none" xmlns="http://www.w3.org/2000/svg">
<path d="M18.0687 17.9992V17.9985H18.073V11.397C18.073 8.16745 17.4113 5.67969 13.8182 5.67969C12.0909 5.67969 10.9317 6.67569 10.4585 7.61995H10.4085V5.98119H7.00168V17.9985H10.5491V12.048C10.5491 10.4812 10.8318 8.9662 12.6783 8.9662C14.4977 8.9662 14.5248 10.7542 14.5248 12.1485V17.9992H18.0687Z" fill="white"/>
<path d="M1.22629 5.98242H4.77798V17.9997H1.22629V5.98242Z" fill="white"/>
<path d="M3.00017 0C1.86456 0 0.943085 0.968253 0.943085 2.16151C0.943085 3.35476 1.86456 4.34326 3.00017 4.34326C4.13577 4.34326 5.05725 3.35476 5.05725 2.16151C5.05654 0.968253 4.13506 0 3.00017 0V0Z" fill="white"/>
</svg>
