<svg width="108" height="36" viewBox="0 0 108 36" fill="none" xmlns="http://www.w3.org/2000/svg">
<rect width="108" height="36" fill="url(#paint0_linear_1_1801)"/>
<path d="M24.3415 16.696C23.3655 16.472 22.8855 16.104 22.8855 15.416C22.8855 14.648 23.6055 14.2 24.8055 14.2C25.7815 14.2 26.6935 14.488 27.6055 15.112L28.5175 13.528C27.4135 12.808 26.1335 12.456 24.7895 12.456C22.5975 12.456 20.8855 13.656 20.8855 15.512C20.8855 17.032 21.9895 17.992 23.6535 18.36L25.2055 18.696C26.1655 18.92 26.7415 19.304 26.7415 20.056C26.7415 20.92 25.9415 21.4 24.6775 21.4C23.6055 21.4 22.5495 21.112 21.4935 20.36L20.6455 22.008C21.8615 22.824 23.2695 23.144 24.7415 23.144C26.9975 23.144 28.7255 21.912 28.7255 20.008C28.7255 18.392 27.6695 17.496 25.8295 17.064L24.3415 16.696ZM31.6499 23H33.5539V12.6H31.6499V23ZM44.5484 22.584C45.3484 22.168 46.0044 21.688 46.5964 20.952V17.304H41.6844V18.904L44.6924 18.888V20.312C43.9884 21.064 43.0444 21.416 41.9404 21.416C40.9004 21.416 39.9564 21.048 39.3324 20.456C38.6604 19.816 38.2444 18.84 38.2444 17.816C38.2444 16.696 38.6604 15.784 39.3804 15.16C40.0204 14.6 40.9004 14.248 41.9404 14.248C43.2364 14.248 44.0844 14.696 44.9484 15.624L46.3724 14.408C45.2044 13.064 43.6684 12.456 41.9404 12.456C40.4524 12.456 39.0444 12.968 38.0364 13.928C36.9644 14.872 36.3244 16.28 36.3244 17.816C36.3244 19.304 36.9484 20.792 38.0364 21.736C39.0284 22.68 40.4364 23.144 41.9404 23.144C42.8844 23.144 43.7164 22.968 44.5484 22.584ZM59.0432 12.6H57.2352V19.016L49.9872 12.488H49.8592V23H51.6672V16.504L58.9312 23.112H59.0432V12.6ZM66.9224 12.6V18.584C66.9224 20.008 67.3704 21.24 68.2504 22.056C69.0344 22.744 70.1384 23.144 71.4504 23.144C72.7464 23.128 73.8344 22.744 74.6344 22.056C75.5304 21.272 76.0264 20.04 76.0264 18.584V12.6H74.1224V18.424C74.1224 19.448 73.8344 20.168 73.3384 20.616C72.8744 21.064 72.1864 21.288 71.4824 21.288C70.7464 21.288 70.0904 21.064 69.6264 20.632C69.1304 20.168 68.8104 19.464 68.8104 18.424V12.6H66.9224ZM79.2436 23H81.1476V19.352H83.8676C85.9476 19.352 87.4356 17.944 87.4356 15.976C87.4356 14.024 85.9476 12.6 83.8836 12.6H79.2436V23ZM83.6436 14.344C84.6676 14.344 85.4036 15.032 85.4036 15.976C85.4036 16.92 84.6676 17.608 83.6436 17.608H81.1476V14.344H83.6436Z" fill="white"/>
<defs>
<linearGradient id="paint0_linear_1_1801" x1="0" y1="0" x2="109.434" y2="5.54527" gradientUnits="userSpaceOnUse">
<stop stop-color="#43CEBD"/>
<stop offset="1" stop-color="#6FB5E9"/>
</linearGradient>
</defs>
</svg>
