<svg width="160" height="62" viewBox="0 0 160 62" fill="none" xmlns="http://www.w3.org/2000/svg">
<path d="M81.207 1.76956H85.159V11.0016H86.407V1.76956H90.183L90.327 0.601562H81.351L81.207 1.76956Z" fill="white"/>
<path d="M100.11 11.0016H101.358V0.601562H100.11V5.22556H93.6783V0.601562H92.4303V11.0016H93.6783V6.40956H100.11V11.0016Z" fill="white"/>
<path d="M104.855 11.0016H112.183L112.327 9.83356H106.103V6.37756H111.159L111.303 5.19356H106.103V1.76956H112.183L112.327 0.601562H104.855V11.0016Z" fill="white"/>
<path d="M88.087 33.6096H88.215L92.471 27.9136V35.0016H93.671V24.5056H93.575L88.167 31.8496L82.711 24.5056H82.599V35.0016H83.815V27.9136L88.087 33.6096Z" fill="white"/>
<path d="M101.869 35.1456C103.389 35.1456 104.749 34.5536 105.709 33.5776C106.685 32.6016 107.261 31.2736 107.261 29.7856C107.261 28.3136 106.685 27.0016 105.725 26.0416C104.749 25.0656 103.389 24.4576 101.869 24.4576C100.349 24.4576 98.9887 25.0656 98.0127 26.0416C97.0527 27.0016 96.4767 28.3296 96.4767 29.8016C96.4767 31.2896 97.0527 32.6016 98.0287 33.5776C98.9887 34.5536 100.349 35.1456 101.869 35.1456ZM101.869 33.9936C100.733 33.9936 99.7087 33.5296 98.9567 32.7776C98.2047 32.0256 97.7407 30.9696 97.7407 29.7856C97.7407 28.6176 98.2047 27.5776 98.9567 26.8416C99.6927 26.0896 100.717 25.6416 101.869 25.6416C103.021 25.6416 104.045 26.0896 104.781 26.8416C105.533 27.5776 105.997 28.6176 105.997 29.7856C105.997 30.9696 105.533 32.0256 104.781 32.7776C104.029 33.5296 103.005 33.9776 101.869 33.9936Z" fill="white"/>
<path d="M110.074 35.0016H111.322V29.9136L116.442 35.0016H118.154L113.546 30.5056C113.834 30.5536 114.01 30.5536 114.202 30.5536H115.05C116.938 30.5536 118.202 29.4496 118.202 27.5936C118.202 25.8336 116.938 24.6016 115.066 24.6016H110.074V35.0016ZM115.082 25.7696C116.202 25.7696 116.922 26.5056 116.922 27.5936C116.922 28.6656 116.202 29.4976 115.082 29.4976H111.322V25.7696H115.082Z" fill="white"/>
<path d="M129.878 24.6016H128.662V32.2336L121.158 24.5056H121.046V35.0016H122.246V27.4336L129.766 35.0976H129.878V24.6016Z" fill="white"/>
<path d="M133.377 35.0016H134.625V24.6016H133.377V35.0016Z" fill="white"/>
<path d="M146.962 24.6016H145.746V32.2336L138.242 24.5056H138.13V35.0016H139.33V27.4336L146.85 35.0976H146.962V24.6016Z" fill="white"/>
<path d="M157.726 34.6976C158.446 34.3936 159.07 33.9456 159.678 33.3856V29.4656H155.294V30.6336H158.43V32.9056C157.566 33.5776 156.542 33.9936 155.31 33.9936C154.142 33.9936 153.07 33.5776 152.286 32.8416C151.518 32.0896 151.006 30.9856 151.006 29.7856C151.006 28.6016 151.502 27.5136 152.27 26.7616C153.038 26.0416 154.062 25.6256 155.214 25.6256C156.558 25.6256 157.614 26.1536 158.638 27.2736L159.534 26.3616C158.478 25.1776 156.958 24.4576 155.214 24.4576C153.758 24.4576 152.446 24.9856 151.454 25.9136C150.414 26.8416 149.774 28.2816 149.774 29.7856C149.774 31.3056 150.414 32.7456 151.486 33.7056C152.478 34.6336 153.838 35.1456 155.31 35.1456C156.206 35.1456 156.99 34.9856 157.726 34.6976Z" fill="white"/>
<path d="M91.287 50.1856C90.327 49.0816 88.983 48.4576 87.271 48.4576C85.831 48.4576 84.535 48.9696 83.559 49.8976C82.519 50.8256 81.911 52.3136 81.911 53.8176C81.911 55.3376 82.487 56.7936 83.527 57.7216C84.503 58.6336 85.831 59.1456 87.271 59.1456C88.871 59.1456 90.311 58.5696 91.351 57.3216L90.487 56.5056C89.623 57.4656 88.535 57.9616 87.271 57.9616C86.167 57.9616 85.127 57.5456 84.359 56.8256C83.623 56.0896 83.175 54.9696 83.175 53.7856C83.175 52.6176 83.655 51.5136 84.391 50.7776C85.159 50.0576 86.167 49.6256 87.271 49.6256C88.519 49.6256 89.639 50.1856 90.407 51.0656L91.287 50.1856Z" fill="white"/>
<path d="M98.2437 59.1456C99.7637 59.1456 101.124 58.5536 102.084 57.5776C103.06 56.6016 103.636 55.2736 103.636 53.7856C103.636 52.3136 103.06 51.0016 102.1 50.0416C101.124 49.0656 99.7637 48.4576 98.2437 48.4576C96.7237 48.4576 95.3637 49.0656 94.3877 50.0416C93.4277 51.0016 92.8517 52.3296 92.8517 53.8016C92.8517 55.2896 93.4277 56.6016 94.4037 57.5776C95.3637 58.5536 96.7237 59.1456 98.2437 59.1456ZM98.2437 57.9936C97.1077 57.9936 96.0837 57.5296 95.3317 56.7776C94.5797 56.0256 94.1157 54.9696 94.1157 53.7856C94.1157 52.6176 94.5797 51.5776 95.3317 50.8416C96.0677 50.0896 97.0917 49.6416 98.2437 49.6416C99.3957 49.6416 100.42 50.0896 101.156 50.8416C101.908 51.5776 102.372 52.6176 102.372 53.7856C102.372 54.9696 101.908 56.0256 101.156 56.7776C100.404 57.5296 99.3797 57.9776 98.2437 57.9936Z" fill="white"/>
<path d="M115.281 48.6016H114.065V56.2336L106.561 48.5056H106.449V59.0016H107.649V51.4336L115.169 59.0976H115.281V48.6016Z" fill="white"/>
<path d="M117.388 49.7696H121.34V59.0016H122.588V49.7696H126.364L126.508 48.6016H117.532L117.388 49.7696Z" fill="white"/>
<path d="M128.612 59.0016H135.94L136.084 57.8336H129.86V54.3776H134.916L135.06 53.1936H129.86V49.7696H135.94L136.084 48.6016H128.612V59.0016Z" fill="white"/>
<path d="M145.795 59.0016H147.299L143.155 53.6736L147.123 48.6016H145.699L142.403 52.8096L139.219 48.6016H137.715L141.635 53.7536L137.555 59.0016H138.995L142.403 54.6336L145.795 59.0016Z" fill="white"/>
<path d="M148.179 49.7696H152.131V59.0016H153.379V49.7696H157.155L157.299 48.6016H148.323L148.179 49.7696Z" fill="white"/>
<path d="M31 62C13.8792 62 -2.10343e-06 48.1208 -1.35505e-06 31C-6.06677e-07 13.8792 13.8792 -2.10343e-06 31 -1.35505e-06C48.1208 -6.06679e-07 62 13.8792 62 31C62 48.1208 48.1208 62 31 62Z" fill="url(#paint0_linear_1_1807)"/>
<defs>
<linearGradient id="paint0_linear_1_1807" x1="-7.19889e-07" y1="31" x2="62" y2="31" gradientUnits="userSpaceOnUse">
<stop stop-color="#55C79A"/>
<stop offset="0.520833" stop-color="#907CFF"/>
<stop offset="1" stop-color="#FC876D"/>
</linearGradient>
</defs>
</svg>
