<svg width="108" height="36" viewBox="0 0 108 36" fill="none" xmlns="http://www.w3.org/2000/svg">
<path d="M47.7109 5.11776H49.8085V10.1161H50.6653V5.11776H52.6468L52.745 4.31445H47.8091L47.7109 5.11776Z" fill="#051462"/>
<path d="M60.7322 10.1161H61.5891V4.31445H60.7322V6.85826H57.3941V4.31445H56.5372V10.1161H57.3941V7.66156H60.7322V10.1161Z" fill="#051462"/>
<path d="M66.0963 10.1161H70.211L70.3092 9.32173H66.9532V7.60801H69.6933L69.7915 6.8047H66.9532V5.11776H70.2021L70.3003 4.31445H66.0963V10.1161Z" fill="#051462"/>
<path d="M51.4954 20.086H51.549L53.7625 17.2388V20.8269H54.5926V14.9538H54.5301L51.5222 18.8811L48.4964 14.9538H48.425V20.8269H49.264V17.2477L51.4954 20.086Z" fill="#051462"/>
<path d="M63.9018 20.0414C64.4373 19.4969 64.7676 18.7561 64.7676 17.926C64.7676 17.1049 64.4463 16.364 63.9107 15.8285C63.3573 15.284 62.5987 14.9449 61.7418 14.9449C60.8849 14.9449 60.1263 15.284 59.5729 15.8285C59.0373 16.364 58.716 17.1049 58.716 17.926C58.716 18.765 59.0373 19.4969 59.5818 20.0325C60.1263 20.5769 60.8849 20.9072 61.7418 20.9072C62.5987 20.9072 63.3573 20.5859 63.9018 20.0414ZM60.2155 19.4791C59.8228 19.0864 59.5907 18.533 59.5907 17.926C59.5907 17.3191 59.8228 16.7746 60.2244 16.3908C60.5993 15.9981 61.1349 15.766 61.7418 15.766C62.3398 15.766 62.8843 15.9981 63.2681 16.3908C63.6519 16.7746 63.8929 17.3191 63.8929 17.926C63.8929 18.5419 63.6519 19.0953 63.2592 19.4791C62.8754 19.8718 62.3309 20.1039 61.7418 20.1039C61.1438 20.1039 60.6083 19.8718 60.2155 19.4791Z" fill="#051462"/>
<path d="M68.8856 20.8269H69.7335V18.1224L72.3933 20.8269H73.5358L71.0991 18.3991C71.233 18.4169 71.3133 18.4169 71.3937 18.4169H71.7507C72.8039 18.4169 73.5001 17.7743 73.5001 16.7568C73.5001 15.7482 72.7593 15.0252 71.6971 15.0252H68.8856V20.8269ZM71.6257 15.8107C72.2148 15.8107 72.5986 16.1945 72.5986 16.7568C72.5986 17.3191 72.2148 17.7475 71.6257 17.7475H69.7335V15.8107H71.6257Z" fill="#051462"/>
<path d="M82.6939 15.0252H81.8727V18.9703L77.7491 14.9716H77.6777V20.8269H78.4988V16.8728L82.6314 20.8804H82.6939V15.0252Z" fill="#051462"/>
<path d="M87.2019 20.8269H88.0588V15.0252H87.2019V20.8269Z" fill="#051462"/>
<path d="M97.5847 15.0252H96.7635V18.9703L92.6399 14.9716H92.5685V20.8269H93.3896V16.8728L97.5222 20.8804H97.5847V15.0252Z" fill="#051462"/>
<path d="M106.216 20.6305C106.636 20.4341 106.993 20.1753 107.323 19.8183V17.7029H104.753V18.4616L106.466 18.4526V19.4969C106.029 19.9075 105.476 20.1217 104.824 20.1217C104.199 20.1217 103.637 19.9075 103.235 19.5326C102.825 19.1399 102.566 18.5508 102.566 17.926C102.566 17.2834 102.825 16.7211 103.244 16.3283C103.637 15.9713 104.172 15.7571 104.788 15.7571C105.529 15.7571 106.065 16.0338 106.6 16.605L107.225 16.0249C106.609 15.3197 105.761 14.9449 104.788 14.9449C103.967 14.9449 103.208 15.2394 102.655 15.766C102.066 16.2837 101.709 17.0781 101.709 17.926C101.709 18.765 102.066 19.5862 102.664 20.1128C103.217 20.6394 103.985 20.9072 104.815 20.9072C105.333 20.9072 105.779 20.8179 106.216 20.6305Z" fill="#051462"/>
<path d="M53.2984 26.6017C52.745 25.9859 51.9863 25.6556 51.058 25.6556C50.2458 25.6556 49.5139 25.9412 48.9694 26.4678C48.3804 26.9855 48.0412 27.8067 48.0412 28.6457C48.0412 29.4936 48.3714 30.2969 48.9516 30.8146C49.4961 31.3323 50.2458 31.6179 51.058 31.6179C51.9328 31.6179 52.7361 31.3234 53.3252 30.6361L52.7361 30.0559C52.2719 30.5647 51.7096 30.8057 51.0491 30.8057C50.469 30.8057 49.9245 30.5915 49.5318 30.2166C49.148 29.8239 48.9159 29.2526 48.9159 28.6368C48.9159 28.0209 49.1569 27.4586 49.5407 27.0659C49.9423 26.691 50.469 26.4678 51.0491 26.4678C51.7007 26.4678 52.2809 26.7356 52.6914 27.1997L53.2984 26.6017Z" fill="#051462"/>
<path d="M61.9406 30.7521C62.4761 30.2077 62.8064 29.4669 62.8064 28.6368C62.8064 27.8156 62.4851 27.0748 61.9495 26.5392C61.3961 25.9948 60.6375 25.6556 59.7806 25.6556C58.9237 25.6556 58.1651 25.9948 57.6117 26.5392C57.0761 27.0748 56.7548 27.8156 56.7548 28.6368C56.7548 29.4758 57.0761 30.2077 57.6206 30.7432C58.1651 31.2877 58.9237 31.6179 59.7806 31.6179C60.6375 31.6179 61.3961 31.2966 61.9406 30.7521ZM58.2543 30.1898C57.8616 29.7971 57.6295 29.2437 57.6295 28.6368C57.6295 28.0298 57.8616 27.4854 58.2633 27.1016C58.6381 26.7088 59.1737 26.4768 59.7806 26.4768C60.3786 26.4768 60.9231 26.7088 61.3069 27.1016C61.6907 27.4854 61.9317 28.0298 61.9317 28.6368C61.9317 29.2526 61.6907 29.806 61.298 30.1898C60.9142 30.5826 60.3697 30.8146 59.7806 30.8146C59.1826 30.8146 58.6471 30.5826 58.2543 30.1898Z" fill="#051462"/>
<path d="M71.9406 25.7359H71.1194V29.6811L66.9958 25.6824H66.9244V31.5376H67.7455V27.5835L71.8781 31.5912H71.9406V25.7359Z" fill="#051462"/>
<path d="M75.7346 26.5392H77.8321V31.5376H78.689V26.5392H80.6705L80.7687 25.7359H75.8328L75.7346 26.5392Z" fill="#051462"/>
<path d="M84.5609 31.5376H88.6756L88.7737 30.7432H85.4177V29.0295H88.1579L88.2561 28.2262H85.4177V26.5392H88.6666L88.7648 25.7359H84.5609V31.5376Z" fill="#051462"/>
<path d="M96.7381 31.5376H97.7646L95.5064 28.5654L97.6664 25.7359H96.6935L94.9887 27.9584L93.3464 25.7359H92.3289L94.4532 28.6189L92.2218 31.5376H93.2125L94.9798 29.2259L96.7381 31.5376Z" fill="#051462"/>
<path d="M100.856 26.5392H102.953V31.5376H103.81V26.5392H105.792L105.89 25.7359H100.954L100.856 26.5392Z" fill="#051462"/>
<circle cx="18" cy="18" r="18" fill="url(#paint0_linear_1_1793)"/>
<defs>
<linearGradient id="paint0_linear_1_1793" x1="0" y1="17.8512" x2="36" y2="17.8512" gradientUnits="userSpaceOnUse">
<stop stop-color="#55C79A"/>
<stop offset="0.520833" stop-color="#907CFF"/>
<stop offset="1" stop-color="#FC876D"/>
</linearGradient>
</defs>
</svg>
