<svg width="22" height="18" viewBox="0 0 22 18" fill="none" xmlns="http://www.w3.org/2000/svg">
<path d="M21.9812 2.51254C21.1672 2.85385 20.2999 3.08008 19.3956 3.18992C20.3259 2.659 21.0359 1.82469 21.3697 0.819077C20.5023 1.31338 19.5447 1.66254 18.5241 1.85738C17.7006 1.01915 16.5268 0.5 15.2463 0.5C12.7619 0.5 10.7618 2.42754 10.7618 4.79054C10.7618 5.13054 10.7919 5.45746 10.8658 5.76869C7.13506 5.59477 3.83395 3.88562 1.61633 1.282C1.22917 1.92408 1.00207 2.659 1.00207 3.45015C1.00207 4.93569 1.80238 6.25254 2.99533 7.01492C2.27436 7.00185 1.56708 6.80177 0.967871 6.48662C0.967871 6.49969 0.967871 6.51669 0.967871 6.53369C0.967871 8.61815 2.52335 10.3495 4.56312 10.7484C4.19785 10.8438 3.79975 10.8896 3.38659 10.8896C3.0993 10.8896 2.80927 10.8739 2.53703 10.8164C3.11845 12.5151 4.76833 13.7639 6.73012 13.8045C5.20337 14.9461 3.26484 15.6339 1.16624 15.6339C0.798232 15.6339 0.445274 15.6182 0.0923157 15.5751C2.0801 16.8004 4.43589 17.5 6.97637 17.5C15.234 17.5 19.7485 10.9615 19.7485 5.294C19.7485 5.10438 19.7417 4.92131 19.7321 4.73954C20.6227 4.13538 21.371 3.38085 21.9812 2.51254Z" fill="white"/>
</svg>
