<svg width="24" height="16" viewBox="0 0 24 16" fill="none" xmlns="http://www.w3.org/2000/svg">
<path d="M23.4974 2.50708C23.3615 2.02231 23.0968 1.58342 22.7314 1.23708C22.3557 0.88008 21.8952 0.624712 21.3934 0.495076C19.5154 7.59661e-05 11.9914 7.60774e-05 11.9914 7.60774e-05C8.85471 -0.0356113 5.71881 0.121351 2.60138 0.470076C2.09957 0.609289 1.63995 0.870363 1.26338 1.23008C0.893382 1.58608 0.625382 2.02508 0.485382 2.50608C0.149075 4.31782 -0.0143257 6.15742 -0.00261768 8.00008C-0.0146177 9.84108 0.148382 11.6801 0.485382 13.4941C0.622382 13.9731 0.889382 14.4101 1.26038 14.7631C1.63138 15.1161 2.09338 15.3711 2.60138 15.5061C4.50438 16.0001 11.9914 16.0001 11.9914 16.0001C15.132 16.0358 18.2719 15.8789 21.3934 15.5301C21.8952 15.4004 22.3557 15.1451 22.7314 14.7881C23.1014 14.4351 23.3644 13.9961 23.4964 13.5181C23.8415 11.707 24.0093 9.86667 23.9974 8.02308C24.0233 6.17168 23.8558 4.32264 23.4974 2.50608V2.50708ZM9.59938 11.4241V4.57708L15.8594 8.00108L9.59938 11.4241Z" fill="white"/>
</svg>
